<?xml version="1.0" encoding="utf-8"?>
<!-- Generator: Adobe Illustrator 24.1.1, SVG Export Plug-In . SVG Version: 6.00 Build 0)  -->
<svg version="1.1" id="Capa_1" xmlns="http://www.w3.org/2000/svg" xmlns:xlink="http://www.w3.org/1999/xlink" x="0px" y="0px"
	 viewBox="0 0 20 20" style="enable-background:new 0 0 20 20;" xml:space="preserve">
<style type="text/css">
	.st0{fill-rule:evenodd;clip-rule:evenodd;}
	.st1{fill-rule:evenodd;clip-rule:evenodd;fill:#B5121B;}
	.st2{fill:#B5121B;}
	.st3{fill:#BDB793;}
	.st4{fill:#B65334;}
	.st5{fill:#FFFFFF;}
	.st6{fill-rule:evenodd;clip-rule:evenodd;fill:#FFFFFF;stroke:#000000;stroke-width:0.5;stroke-miterlimit:10;}
	.st7{fill:#FFFFFF;stroke:#000000;stroke-width:0.5;stroke-miterlimit:10;}
	.st8{fill-rule:evenodd;clip-rule:evenodd;fill:#444851;}
	.st9{fill-rule:evenodd;clip-rule:evenodd;fill:#FFFFFF;}
</style>
<g>
	<g>
		<path class="st5" d="M10,1.02c4.96,0,8.98,4.03,8.98,8.98c0,4.96-4.02,8.98-8.98,8.98c-4.95,0-8.98-4.02-8.98-8.98
			C1.02,5.05,5.04,1.02,10,1.02 M10,0.56c-5.2,0-9.44,4.23-9.44,9.44c0,5.21,4.23,9.44,9.44,9.44c5.21,0,9.44-4.23,9.44-9.44
			C19.44,4.8,15.2,0.56,10,0.56L10,0.56z"/>
	</g>
	<g>
		<path class="st9" d="M13.57,5.15c-2.38,0-4.76,0-7.14,0c-0.85,0-1.29,0.45-1.29,1.3c0,1.18,0,2.36,0,3.55c0,1.18,0,2.39,0,3.58
			c0,0.82,0.45,1.27,1.25,1.27c2.4,0,4.79,0,7.18,0c0.83,0,1.28-0.45,1.28-1.28c0-2.39,0-4.76,0-7.15
			C14.86,5.61,14.4,5.15,13.57,5.15z M12.78,6.26c0.96,0,0.96,0,0.96,0.96c0,0.94,0,0.94-0.95,0.94c-0.95,0-0.95,0-0.95-0.95
			C11.85,6.26,11.85,6.26,12.78,6.26z M10.01,8.12c1.01,0,1.88,0.87,1.87,1.88c-0.01,1.04-0.87,1.89-1.9,1.87
			c-1.02-0.02-1.88-0.88-1.86-1.89C8.14,8.96,8.99,8.12,10.01,8.12z M13.75,13.17c-0.01,0.45-0.13,0.58-0.58,0.58
			c-1.06,0-2.12,0-3.18,0c-1.05,0-2.11,0-3.17,0c-0.44,0-0.57-0.13-0.57-0.58c0-1.17,0-2.36-0.02-3.54c0-0.34,0.09-0.41,0.4-0.4
			c0.44,0.04,0.45,0.02,0.4,0.45c-0.17,1.49,0.87,2.95,2.34,3.24c1.52,0.29,3.05-0.62,3.46-2.08c0.13-0.46,0.16-0.95,0.07-1.39
			c-0.03-0.17,0.01-0.2,0.16-0.2c0.67-0.05,0.67-0.06,0.67,0.63C13.75,10.96,13.75,12.07,13.75,13.17z"/>
	</g>
</g>
</svg>
