<svg id="Capa_1" data-name="Capa 1" xmlns="http://www.w3.org/2000/svg" viewBox="0 0 30 30"><defs><style>.cls-1{fill:#fff;}</style></defs><path class="cls-1" d="M29,5.69c-.58.55-1.19,1.07-1.76,1.64L16.4,18.2c-1,1.06-1.43,1.06-2.48,0L2.14,6.43c-.26-.26-.51-.55-.92-1H28.84Z"/><path class="cls-1" d="M21,16.54l7.94,8H1.38l8.07-8c1,1.06,2.05,2.27,3.19,3.42,1.67,1.68,3.4,1.67,5.06,0C18.83,18.82,19.92,17.68,21,16.54Z"/><path class="cls-1" d="M29.44,21.46,23,15c2.15-2.13,4.32-4.3,6.49-6.46Z"/><path class="cls-1" d="M1,8.44,7.46,14.9,1,21.28Z"/></svg>