<?xml version="1.0" encoding="utf-8"?>
<!-- Generator: Adobe Illustrator 24.1.1, SVG Export Plug-In . SVG Version: 6.00 Build 0)  -->
<svg version="1.1" id="Capa_1" xmlns="http://www.w3.org/2000/svg" xmlns:xlink="http://www.w3.org/1999/xlink" x="0px" y="0px"
	 viewBox="0 0 20 20" style="enable-background:new 0 0 20 20;" xml:space="preserve">
<style type="text/css">
	.st0{fill-rule:evenodd;clip-rule:evenodd;}
	.st1{fill-rule:evenodd;clip-rule:evenodd;fill:#B5121B;}
	.st2{fill:#B5121B;}
	.st3{fill:#BDB793;}
	.st4{fill:#B65334;}
	.st5{fill:#FFFFFF;}
	.st6{fill-rule:evenodd;clip-rule:evenodd;fill:#FFFFFF;stroke:#000000;stroke-width:0.5;stroke-miterlimit:10;}
	.st7{fill:#FFFFFF;stroke:#000000;stroke-width:0.5;stroke-miterlimit:10;}
	.st8{fill-rule:evenodd;clip-rule:evenodd;fill:#444851;}
	.st9{fill-rule:evenodd;clip-rule:evenodd;fill:#FFFFFF;}
</style>
<g>
	<g>
		<path class="st5" d="M10,1.02c4.95,0,8.98,4.02,8.98,8.98c0,4.95-4.02,8.98-8.98,8.98c-4.96,0-8.98-4.02-8.98-8.98
			C1.02,5.04,5.04,1.02,10,1.02 M10,0.56C4.8,0.56,0.56,4.8,0.56,10S4.8,19.44,10,19.44c5.2,0,9.44-4.23,9.44-9.44
			S15.2,0.56,10,0.56L10,0.56z"/>
	</g>
	<g>
		<path class="st9" d="M4.57,13.66c0.85,0.05,1.68-0.07,2.46-0.42c0.35-0.15,0.67-0.34,0.99-0.59c-0.37-0.01-0.71-0.1-1.02-0.26
			c-0.53-0.27-0.9-0.69-1.13-1.26C5.82,11,5.82,11,5.96,11.01c0.38,0.04,0.65,0.03,0.87-0.05c-0.2-0.07-0.4-0.11-0.56-0.21
			c-0.79-0.44-1.2-1.11-1.28-2.01c-0.01-0.1,0.02-0.12,0.12-0.07c0.28,0.16,0.58,0.22,0.92,0.25c-0.15-0.13-0.28-0.24-0.4-0.36
			c-0.65-0.7-0.81-1.82-0.37-2.67c0.06-0.12,0.08-0.12,0.16-0.02c1.1,1.27,2.47,2.03,4.12,2.3c0.17,0.03,0.35,0.03,0.52,0.07
			c0.12,0.02,0.13-0.04,0.11-0.13C10,7.1,10.47,6.12,11.35,5.62c0.9-0.52,2.06-0.36,2.78,0.34c0.08,0.07,0.16,0.09,0.26,0.06
			c0.44-0.1,0.86-0.26,1.25-0.49c0.03-0.01,0.06-0.03,0.1-0.06c-0.17,0.56-0.5,0.98-1,1.31c0.46-0.04,0.87-0.18,1.27-0.33
			c0.01,0.05-0.03,0.09-0.06,0.13c-0.28,0.38-0.6,0.71-0.98,1c-0.07,0.05-0.09,0.1-0.09,0.19c0.03,1.73-0.52,3.27-1.63,4.61
			c-1.04,1.22-2.36,1.96-3.94,2.21c-1.67,0.26-3.25-0.02-4.69-0.91C4.6,13.67,4.58,13.66,4.57,13.66z"/>
	</g>
</g>
</svg>
