<?xml version="1.0" encoding="utf-8"?>
<!-- Generator: Adobe Illustrator 24.1.1, SVG Export Plug-In . SVG Version: 6.00 Build 0)  -->
<svg version="1.1" id="Capa_1" xmlns="http://www.w3.org/2000/svg" xmlns:xlink="http://www.w3.org/1999/xlink" x="0px" y="0px"
	 viewBox="0 0 279 148" style="enable-background:new 0 0 279 148;" xml:space="preserve">
<style type="text/css">
	.st0{fill-rule:evenodd;clip-rule:evenodd;}
	.st1{fill-rule:evenodd;clip-rule:evenodd;fill:#B5121B;}
	.st2{fill:#B5121B;}
	.st3{fill:#BDB793;}
	.st4{fill:#B65334;}
	.st5{fill:#FFFFFF;}
	.st6{fill-rule:evenodd;clip-rule:evenodd;fill:#FFFFFF;}
</style>
<g>
	<path class="st1" d="M266.83,128.45c3.9,2.38,5.86,4.92,5.88,7.6c0.01,1.67-0.65,3.06-1.97,4.18c-1.31,1.1-2.95,1.66-4.94,1.67
		c-4.5,0.02-8.48-2.11-11.93-6.41l0.04,8.02c3.61,2.65,7.6,3.97,11.98,3.94c3.81-0.02,6.89-1.14,9.24-3.36
		c2.38-2.22,3.56-5.1,3.54-8.63c-0.03-4.97-2.75-9.03-8.18-12.2l-4.87-2.81c-2.19-1.25-3.77-2.46-4.74-3.61
		c-0.98-1.15-1.47-2.39-1.48-3.72c-0.01-1.49,0.65-2.72,1.98-3.67c1.32-0.98,3.03-1.47,5.1-1.48c3.68-0.02,7.12,1.49,10.33,4.52
		l-0.04-7.16c-3.1-2.05-6.5-3.06-10.2-3.04c-3.87,0.02-7.02,1.12-9.43,3.3c-2.4,2.18-3.59,5-3.57,8.48
		c0.01,2.31,0.66,4.36,1.94,6.14c1.3,1.76,3.46,3.55,6.5,5.36L266.83,128.45L266.83,128.45z"/>
	<polygon class="st1" points="223.54,103.09 223.77,147.11 249.49,146.98 249.46,141.36 230.08,141.46 230.01,127.76 248.16,127.67 
		248.12,122.02 229.98,122.11 229.91,108.67 248.69,108.57 248.66,102.96 223.54,103.09 	"/>
	<polygon class="st1" points="208.32,103.17 208.5,137.37 178.45,103.32 173.31,103.35 173.54,147.44 179.5,147.4 179.32,113.48 
		209.12,147.25 214.58,147.22 214.35,103.14 208.32,103.17 	"/>
	<path class="st2" d="M148.7,103.23l-4.47,0.02l-18.8,44.44l6.5-0.03l5.51-13.1l18.84-0.1l5.97,13.04l6.5-0.03L148.7,103.23z
		 M139.89,128.93l6.55-16l7.22,15.93L139.89,128.93z"/>
	<path class="st2" d="M130.12,116.07c-0.02-3.83-1.3-6.88-3.82-9.13c-2.53-2.26-5.91-3.37-10.14-3.35l-14.05,0.08l0.23,44.15
		l6.37-0.03l-0.1-19.12l4.7-0.02c4.19-0.02,7.4-0.48,9.63-1.37c2.24-0.92,3.99-2.37,5.28-4.35
		C129.5,120.91,130.13,118.64,130.12,116.07z M121.48,121.17c-1.39,1.21-3.37,1.82-5.95,1.83l-6.94,0.03l-0.07-13.79l6.57-0.03
		c5.62-0.03,8.45,2.22,8.47,6.74C123.56,118.2,122.87,119.94,121.48,121.17z"/>
	<path class="st2" d="M274.91,67.67c-5.19,4.19-10.45,6.3-15.77,6.33c-5.21,0.03-9.41-1.87-12.58-5.69
		c-3.14-3.81-4.72-8.35-4.75-13.61c0-0.84,0.06-1.92,0.2-3.23l35.73-0.19c0.14-1.42,0.21-2.7,0.2-3.83
		c-0.04-6.58-1.7-11.75-4.98-15.53c-3.29-3.82-7.66-5.71-13.13-5.68c-6.53,0.04-12.06,2.78-16.58,8.25
		c-4.52,5.43-6.76,12.11-6.72,20.03c0.04,7.3,2.12,13.15,6.26,17.55c4.13,4.4,9.56,6.58,16.27,6.54c5.65-0.03,10.95-1.92,15.88-5.67
		L274.91,67.67z M248.97,35.48c3.36-3.09,6.95-4.64,10.77-4.66c4.14-0.02,7.44,1.41,9.88,4.28c2.44,2.83,3.56,6.77,3.36,11.81
		l-30.17,0.16C243.56,42.43,245.61,38.57,248.97,35.48z"/>
	<path class="st1" d="M236.93,27.33l-11.95,0.06l1.44-9.16c1.42-9.21,6.46-13.84,15.12-13.88c3.67-0.02,7.55,1,11.63,3.06l0.53-4.17
		c-4.09-2.06-8.26-3.08-12.51-3.06c-5.58,0.03-10.16,1.86-13.73,5.49c-3.54,3.64-5.74,8.69-6.58,15.15l-0.85,6.58l-10.13,0.05
		l-0.59,3.73l10.18-0.06l-9.33,69.07l4.95-0.02l9.33-69.07l11.95-0.06L236.93,27.33L236.93,27.33z"/>
	<polygon class="st1" points="201.8,27.51 196.85,27.54 189.96,77.97 194.97,77.95 201.8,27.51 	"/>
	<polygon class="st1" points="204.61,5.75 199.65,5.78 198.43,14.11 203.38,14.08 204.61,5.75 204.61,5.75 	"/>
	<polygon class="st1" points="185.21,1.47 180.25,1.49 169.81,78.08 174.82,78.05 185.21,1.47 	"/>
	<polygon class="st1" points="151.71,17.52 131.64,42.55 111.22,17.73 103.02,17.77 103.34,78.43 112.07,78.38 111.82,31.19 
		130.88,54.54 132.49,54.53 151.13,30.98 151.38,78.18 160.15,78.13 159.83,17.48 151.71,17.52 	"/>
	<path class="st2" d="M73.67,17.58l-6.15,0.03L41.66,78.75l8.94-0.05l7.58-18.01l25.92-0.14l8.21,17.93l8.94-0.05L73.67,17.58z
		 M61.55,52.94l9-22.01l9.93,21.92L61.55,52.94z"/>
	<path class="st2" d="M43.27,62.2c-0.02-3.91-1.36-7.26-4.03-10.05c-2.63-2.79-6.17-4.6-10.63-5.42c6.18-2.61,9.26-6.89,9.23-12.86
		c-0.02-3.1-0.77-5.81-2.27-8.15c-1.5-2.37-3.66-4.21-6.49-5.52c-2.83-1.35-6.76-2.01-11.79-1.98L1.33,18.31l0.32,60.65l20.64-0.11
		c4.65-0.02,8.52-0.81,11.59-2.36c3.1-1.55,5.45-3.54,7.04-5.98C42.5,68.07,43.29,65.3,43.27,62.2z M10.1,25.99l7.51-0.04
		c7.44-0.04,11.18,2.85,11.21,8.67c0.01,2.81-0.96,5.1-2.93,6.88c-1.94,1.77-5.24,2.68-9.89,2.7l-5.8,0.03L10.1,25.99z M32.69,66.51
		c-1.01,1.57-2.37,2.73-4.08,3.49c-1.68,0.73-4.91,1.11-9.68,1.14l-8.59,0.05l-0.1-19.23l8.16-0.04c4.33-0.02,7.51,0.34,9.52,1.08
		c2.01,0.74,3.56,1.88,4.64,3.4c1.11,1.53,1.67,3.22,1.68,5.07C34.25,63.26,33.73,64.95,32.69,66.51z"/>
</g>
</svg>
