<svg id="Capa_1" data-name="Capa 1" xmlns="http://www.w3.org/2000/svg" viewBox="0 0 279 148"><defs><style>.cls-1,.cls-2{fill:#fff;}.cls-1{fill-rule:evenodd;}</style></defs><path class="cls-1" d="M266.83,128.45q5.87,3.57,5.88,7.61a5.23,5.23,0,0,1-2,4.18,7.48,7.48,0,0,1-4.94,1.66q-6.76,0-11.93-6.4l0,8a19.56,19.56,0,0,0,12,4,13,13,0,0,0,9.24-3.36,11.21,11.21,0,0,0,3.54-8.64q0-7.44-8.18-12.2l-4.87-2.81a18,18,0,0,1-4.74-3.61,5.66,5.66,0,0,1-1.49-3.72,4.35,4.35,0,0,1,2-3.67,8.39,8.39,0,0,1,5.09-1.48c3.68,0,7.13,1.49,10.34,4.53l0-7.17a18,18,0,0,0-10.2-3,13.66,13.66,0,0,0-9.43,3.3,10.84,10.84,0,0,0-3.57,8.48,10.33,10.33,0,0,0,1.93,6.14,22,22,0,0,0,6.5,5.36l4.83,2.88Z"/><polygon class="cls-1" points="223.54 103.09 223.77 147.11 249.49 146.98 249.46 141.36 230.09 141.46 230.01 127.76 248.16 127.67 248.12 122.02 229.98 122.11 229.91 108.67 248.69 108.57 248.66 102.95 223.54 103.09 223.54 103.09"/><polygon class="cls-1" points="208.32 103.17 208.5 137.38 178.44 103.33 173.31 103.35 173.54 147.44 179.5 147.4 179.32 113.48 209.12 147.25 214.58 147.22 214.35 103.14 208.32 103.17 208.32 103.17"/><path class="cls-2" d="M148.7,103.23l-4.47,0-18.8,44.44,6.5,0,5.52-13.1,18.84-.1,6,13,6.5,0Zm-8.81,25.7,6.54-16,7.22,15.93Z"/><path class="cls-2" d="M130.12,116.07a11.76,11.76,0,0,0-3.82-9.13c-2.54-2.26-5.91-3.37-10.14-3.35l-14,.07.23,44.15,6.37,0-.1-19.13,4.7,0c4.19,0,7.4-.48,9.63-1.38a11.19,11.19,0,0,0,5.28-4.35A12.24,12.24,0,0,0,130.12,116.07Zm-8.64,5.1a8.84,8.84,0,0,1-6,1.83l-7,0-.07-13.79,6.57,0q8.43,0,8.47,6.74A6.56,6.56,0,0,1,121.48,121.17Z"/><path class="cls-2" d="M274.91,67.67Q267.11,74,259.14,74a15.45,15.45,0,0,1-12.58-5.69,21,21,0,0,1-4.75-13.62,28.73,28.73,0,0,1,.2-3.23l35.73-.19c.14-1.42.2-2.7.2-3.83q-.06-9.87-5-15.53a16.35,16.35,0,0,0-13.14-5.69q-9.8.06-16.58,8.25t-6.72,20q.06,11,6.26,17.55t16.27,6.55a25.94,25.94,0,0,0,15.88-5.68ZM249,35.48q5-4.62,10.77-4.66a12.22,12.22,0,0,1,9.88,4.28c2.43,2.84,3.55,6.77,3.36,11.82l-30.17.15A19.51,19.51,0,0,1,249,35.48Z"/><path class="cls-1" d="M236.93,27.33l-12,.06,1.44-9.15q2.13-13.83,15.12-13.89a25.55,25.55,0,0,1,11.63,3.06l.53-4.16A27.23,27.23,0,0,0,241.19.19a18.62,18.62,0,0,0-13.74,5.49q-5.31,5.46-6.58,15.16L220,27.42l-10.12,0-.59,3.73,10.18-.06-9.32,69.08,5,0,9.33-69.07,12-.06.53-3.73Z"/><polygon class="cls-1" points="201.8 27.51 196.85 27.54 189.96 77.97 194.97 77.95 201.8 27.51 201.8 27.51"/><polygon class="cls-1" points="204.61 5.75 199.65 5.78 198.43 14.11 203.38 14.08 204.61 5.75 204.61 5.75 204.61 5.75"/><polygon class="cls-1" points="185.21 1.47 180.25 1.49 169.81 78.08 174.82 78.05 185.21 1.47 185.21 1.47"/><polygon class="cls-1" points="151.71 17.52 131.64 42.55 111.22 17.73 103.02 17.77 103.34 78.43 112.07 78.38 111.82 31.19 130.88 54.54 132.49 54.53 151.13 30.98 151.38 78.17 160.15 78.13 159.83 17.48 151.71 17.52 151.71 17.52"/><path class="cls-2" d="M73.67,17.58l-6.15,0L41.66,78.75l9,0,7.58-18,25.92-.13,8.21,17.93,8.94,0ZM61.55,52.94l9-22,9.93,21.92Z"/><path class="cls-2" d="M43.27,62.2a14.16,14.16,0,0,0-4-10.05,18.76,18.76,0,0,0-10.63-5.41q9.27-3.91,9.23-12.86a15,15,0,0,0-2.27-8.15,14.8,14.8,0,0,0-6.49-5.52q-4.24-2-11.79-2l-16,.09L1.65,79l20.64-.11a25.92,25.92,0,0,0,11.59-2.36,17.45,17.45,0,0,0,7-6A14.78,14.78,0,0,0,43.27,62.2ZM10.1,26l7.5,0q11.17,0,11.22,8.67a8.82,8.82,0,0,1-2.93,6.88Q23,44.16,16,44.2l-5.8,0ZM32.69,66.51A9.2,9.2,0,0,1,28.61,70q-2.52,1.09-9.68,1.13l-8.6,0L10.23,52l8.16-.05q6.51,0,9.52,1.08a9.52,9.52,0,0,1,4.64,3.41,8.53,8.53,0,0,1,1.69,5.07A8.85,8.85,0,0,1,32.69,66.51Z"/></svg>